<svg width="140" height="100" viewBox="0 0 140 100" fill="none" xmlns="http://www.w3.org/2000/svg">
<g clip-path="url(#clip0_32_40)">
<path d="M69.5 94.5344L0.5 99.463V0.536988L69.5 5.46556V94.5344Z" fill="#FF7744" stroke="black" stroke-linejoin="round"/>
<path d="M70.5 94.5344V5.46556L139.5 0.536988V99.463L70.5 94.5344Z" fill="#FF7744" stroke="black" stroke-linejoin="round"/>
<path d="M8 11.1142C8 9.96602 8.96454 9.05359 10.1109 9.11727L60.1109 11.8951C61.1708 11.9539 62 12.8305 62 13.892V14.9626C62 16.0817 61.0818 16.983 59.963 16.9623L9.96297 16.0364C8.87302 16.0162 8 15.1268 8 14.0367V11.1142Z" fill="white"/>
<rect x="8" y="47" width="54" height="6" rx="2" fill="#1E1E1E"/>
<rect x="8" y="35" width="54" height="6" rx="2" fill="white"/>
<rect x="8" y="23" width="54" height="6" rx="2" fill="#1E1E1E"/>
<path d="M8 88.8858C8 90.034 8.96454 90.9464 10.1109 90.8827L60.1109 88.1049C61.1708 88.0461 62 87.1695 62 86.108V85.0374C62 83.9183 61.0818 83.017 59.963 83.0377L9.96297 83.9636C8.87302 83.9838 8 84.8732 8 85.9633V88.8858Z" fill="white"/>
<rect width="54" height="6" rx="2" transform="matrix(1 0 0 -1 8 65)" fill="white"/>
<rect width="54" height="6" rx="2" transform="matrix(1 0 0 -1 8 77)" fill="#1E1E1E"/>
<path d="M132 11.1142C132 9.96602 131.035 9.05359 129.889 9.11727L79.8891 11.8951C78.8292 11.9539 78 12.8305 78 13.892V14.9626C78 16.0817 78.9182 16.983 80.037 16.9623L130.037 16.0364C131.127 16.0162 132 15.1268 132 14.0367V11.1142Z" fill="white"/>
<rect width="54" height="6" rx="2" transform="matrix(-1 0 0 1 132 47)" fill="#1E1E1E"/>
<rect width="54" height="6" rx="2" transform="matrix(-1 0 0 1 132 35)" fill="white"/>
<rect width="54" height="6" rx="2" transform="matrix(-1 0 0 1 132 23)" fill="#1E1E1E"/>
<path d="M132 88.8858C132 90.034 131.035 90.9464 129.889 90.8827L79.8891 88.1049C78.8292 88.0461 78 87.1695 78 86.108V85.0374C78 83.9183 78.9182 83.017 80.037 83.0377L130.037 83.9636C131.127 83.9838 132 84.8732 132 85.9633V88.8858Z" fill="white"/>
<rect x="132" y="65" width="54" height="6" rx="2" transform="rotate(180 132 65)" fill="white"/>
<rect x="132" y="77" width="54" height="6" rx="2" transform="rotate(180 132 77)" fill="#1E1E1E"/>
</g>
<defs>
<clipPath id="clip0_32_40">
<rect width="140" height="100" fill="white"/>
</clipPath>
</defs>
</svg>
